<?xml version="1.0" encoding="UTF-8" standalone="no"?>
<!-- Created with Inkscape (http://www.inkscape.org/) -->

<svg
   width="1600"
   height="270"
   viewBox="0 0 423.3344 71.437499"
   version="1.1"
   id="svg1"
   xml:space="preserve"
   sodipodi:docname="cuiqMETRICS.svg"
   inkscape:version="1.4 (86a8ad7, 2024-10-11)"
   inkscape:export-filename="..\..\cuiqAnalytics.png"
   inkscape:export-xdpi="120"
   inkscape:export-ydpi="120"
   xmlns:inkscape="http://www.inkscape.org/namespaces/inkscape"
   xmlns:sodipodi="http://sodipodi.sourceforge.net/DTD/sodipodi-0.dtd"
   xmlns="http://www.w3.org/2000/svg"
   xmlns:svg="http://www.w3.org/2000/svg"><sodipodi:namedview
     id="namedview1"
     pagecolor="#ffffff"
     bordercolor="#666666"
     borderopacity="1.0"
     inkscape:showpageshadow="2"
     inkscape:pageopacity="0.0"
     inkscape:pagecheckerboard="0"
     inkscape:deskcolor="#d1d1d1"
     showgrid="false"
     inkscape:zoom="0.32307941"
     inkscape:cx="639.16175"
     inkscape:cy="611.30482"
     inkscape:window-width="1920"
     inkscape:window-height="1009"
     inkscape:window-x="509"
     inkscape:window-y="-8"
     inkscape:window-maximized="1"
     inkscape:current-layer="g4" /><defs
     id="defs1"><rect
       x="-221.78268"
       y="435.40158"
       width="66.670868"
       height="46.261417"
       id="rect4" /><rect
       x="-307.50235"
       y="472.13858"
       width="446.28662"
       height="337.43622"
       id="rect2" /><rect
       x="65.372269"
       y="-107.60052"
       width="315.47729"
       height="58.744045"
       id="rect925" /><rect
       x="65.372269"
       y="-107.60052"
       width="315.47729"
       height="58.744045"
       id="rect925-4" /></defs><g
     id="g4"
     transform="matrix(1.1724215,0,0,1.1724215,-72.024015,-67.001875)"><text
       xml:space="preserve"
       transform="matrix(0.20610498,0,0,0.20610498,49.867636,47.23945)"
       id="text2"
       style="font-style:normal;font-variant:normal;font-weight:normal;font-stretch:normal;font-size:144px;line-height:1.25;font-family:Webdings;-inkscape-font-specification:Webdings;text-align:center;white-space:pre;shape-inside:url(#rect2);display:inline" /><text
       xml:space="preserve"
       transform="matrix(0.20610498,0,0,0.20610498,49.867636,47.23945)"
       id="text4"
       style="font-size:16px;line-height:1.25;font-family:sans-serif;text-align:center;white-space:pre;shape-inside:url(#rect4);display:inline" /><circle
       style="fill:#c3daf1;fill-opacity:1;stroke:#355c80;stroke-width:3.78597;stroke-linecap:round;stroke-dasharray:none;stroke-opacity:1"
       id="path1"
       cx="91.480255"
       cy="87.614075"
       r="26.804621" /><g
       id="g891"
       transform="matrix(0.341199,0,0,0.40514511,65.519798,50.3929)"
       style="fill:#696969;fill-opacity:1"><rect
         style="fill:#696969;fill-opacity:1;stroke:none;stroke-width:1.97484;stroke-linecap:round"
         id="rect872"
         width="10.5795"
         height="10.5795"
         x="30.923967"
         y="85.650276" /><rect
         style="fill:#696969;fill-opacity:1;stroke:none;stroke-width:1.97484;stroke-linecap:round"
         id="rect872-3"
         width="10.5795"
         height="10.5795"
         x="39.834564"
         y="73.058388" /><rect
         style="fill:#696969;fill-opacity:1;stroke:none;stroke-width:1.97484;stroke-linecap:round"
         id="rect872-3-7"
         width="10.5795"
         height="10.5795"
         x="22.40769"
         y="71.66227" /><rect
         style="fill:#696969;fill-opacity:1;stroke:none;stroke-width:1.97484;stroke-linecap:round"
         id="rect872-9"
         width="10.5795"
         height="10.5795"
         x="54.404209"
         y="77.082909" /><rect
         style="fill:#696969;fill-opacity:1;stroke:none;stroke-width:1.97484;stroke-linecap:round"
         id="rect872-3-8"
         width="10.5795"
         height="10.5795"
         x="32.856331"
         y="101.50066" /><rect
         style="fill:#696969;fill-opacity:1;stroke:none;stroke-width:1.97484;stroke-linecap:round"
         id="rect872-3-7-8"
         width="10.5795"
         height="10.5795"
         x="45.727097"
         y="89.435081" /></g><g
       id="g981"
       transform="matrix(0.20272648,0,0,0.21247666,73.281595,70.594289)"
       style="fill:#355c80;fill-opacity:1"><path
         id="path944"
         style="fill:#355c80;fill-opacity:1;stroke:none;stroke-width:1.31619;stroke-linecap:round"
         d="m 64.196741,25.590523 a 54.511381,54.511381 0 0 0 -1.73295,0.02796 68.47161,68.47161 0 0 1 27.00008,54.483432 68.47161,68.47161 0 0 1 -27.00039,54.483755 54.511381,54.511381 0 0 0 1.73872,0.0276 54.511381,54.511381 0 0 0 54.511399,-54.51139 54.511381,54.511381 0 0 0 -54.511399,-54.511388 54.511381,54.511381 0 0 0 -0.006,0 z" /><path
         id="path944-2"
         style="fill:#355c80;fill-opacity:1;stroke:none;stroke-width:2.11667;stroke-linecap:round"
         d="m 95.514391,-7.5625361 a 87.664406,87.664406 0 0 0 -2.78691,0.04496 110.11504,110.11504 0 0 1 43.421139,87.6194561 110.11504,110.11504 0 0 1 -43.421639,87.61997 87.664406,87.664406 0 0 0 2.79619,0.0445 87.664406,87.664406 0 0 0 87.664429,-87.66442 87.664406,87.664406 0 0 0 -87.664429,-87.6644141 87.664406,87.664406 0 0 0 -0.009,0 z" /></g><path
       style="font-weight:bold;font-size:4.23333px;line-height:1.25;font-family:Leelawadee;-inkscape-font-specification:'Leelawadee, Bold';white-space:pre;fill:#5a5a5a;fill-opacity:1;stroke:#696969;stroke-width:0.946143"
       d="m 142.08857,100.07713 q -4.20396,0 -6.5127,-2.308796 -2.27427,-2.308708 -2.27427,-7.339709 0,-3.445845 1.17159,-5.616746 1.17159,-2.1709 3.23912,-3.204661 2.10197,-1.033762 4.82421,-1.033762 1.9297,0 3.34249,0.379317 1.44727,0.379318 2.51549,0.895873 l -1.51617,3.962808 q -1.20607,-0.482693 -2.27428,-0.792821 -1.03377,-0.31013 -2.06753,-0.31013 -3.9972,0 -3.9972,5.68569 0,2.82559 1.03376,4.169479 1.06822,1.343891 2.96344,1.343891 1.61957,0 2.86008,-0.413506 1.2405,-0.447692 2.41211,-1.206001 v 4.376228 q -1.17161,0.757824 -2.48103,1.06819 -1.27497,0.344326 -3.23911,0.344326 z M 169.41431,80.918017 V 99.732474 H 165.486 l -0.6892,-2.412076 h -0.2757 q -0.89591,1.447256 -2.48101,2.10196 -1.55064,0.654442 -3.30803,0.654442 -3.03237,0 -4.85868,-1.619596 -1.82632,-1.654013 -1.82632,-5.272179 V 80.917691 h 5.13435 v 10.992388 q 0,2.033011 0.72363,3.066772 0.72364,0.999331 2.30873,0.999331 2.34319,0 3.20467,-1.585074 0.86146,-1.619588 0.86146,-4.617497 v -8.85592 z m 7.95995,-7.374142 q 1.13714,0 1.96413,0.551069 0.82702,0.516881 0.82702,1.964147 0,1.412836 -0.82702,1.964147 -0.82699,0.551069 -1.96413,0.551069 -1.1716,0 -1.99862,-0.551069 -0.79258,-0.551068 -0.79258,-1.964147 0,-1.447266 0.79258,-1.964147 0.82702,-0.551069 1.99862,-0.551069 z m 2.54993,7.374142 v 18.814457 h -5.13433 V 80.918017 Z m 16.67803,27.084593 v -7.89106 q 0,-1.412836 0.20675,-2.825584 h -0.20675 q -0.72364,1.171578 -1.9986,1.998582 -1.27498,0.792822 -3.3425,0.792822 -3.17021,0 -5.13434,-2.4466 -1.96415,-2.481028 -1.96415,-7.270764 0,-4.82425 1.9986,-7.305278 1.9986,-2.481028 5.20327,-2.481028 2.06751,0 3.34249,0.792823 1.30942,0.792821 2.10198,1.964147 h 0.13781 l 0.44794,-2.412166 h 4.34179 V 108.0031 Z m -3.5148,-11.957158 q 2.13645,0 2.96346,-1.240514 0.827,-1.275028 0.89593,-3.790488 v -0.620257 q 0,-2.722212 -0.86147,-4.169479 -0.82701,-1.481779 -3.06683,-1.481779 -1.82631,0 -2.72224,1.481779 -0.89593,1.447267 -0.89593,4.203911 0,5.616827 3.68708,5.616827 z"
       id="text923"
       aria-label="cuiq" /><text
       xml:space="preserve"
       id="text923-1"
       style="font-style:normal;font-variant:normal;font-weight:bold;font-stretch:normal;font-size:4.23333px;line-height:1.25;font-family:Gadugi;-inkscape-font-specification:'Gadugi, Bold';font-variant-ligatures:normal;font-variant-caps:normal;font-variant-numeric:normal;font-variant-east-asian:normal;white-space:pre;shape-inside:url(#rect925-4);display:inline;fill:#355c80;fill-opacity:1;stroke:#355c80;stroke-width:0.16002822;stroke-miterlimit:4;stroke-dasharray:none;stroke-opacity:1"
       transform="matrix(11.717527,0,0,9.6976276,-556.59695,1107.9224)"><tspan
         x="65.373047"
         y="-103.70941"
         id="tspan4"><tspan
           style="font-weight:normal;font-family:Bahnschrift;-inkscape-font-specification:Bahnschrift"
           id="tspan2">METRICS</tspan></tspan></text></g></svg>
